<svg xmlns="http://www.w3.org/2000/svg" viewBox="-37 -75 1353 1353">
  <rect x="-37" y="-75" width="1353" height="1353" fill="#ffffff"/>
  <defs>
    <linearGradient id="g" x1="0" y1="0" x2="1" y2="0">
      <stop offset="0" stop-color="#ef7067"/>
      <stop offset="0.337" stop-color="#ff8477"/>
      <stop offset="1" stop-color="#ffb79f"/>
    </linearGradient>
    <clipPath id="dark"><polygon points="76,590 136,590 178,608 220,626 262,642 304,658 346,672 388,685 430,697 472,708 514,718 556,727 598,735 640,742 682,748 724,753 766,756 808,759 850,760 892,761 934,760 976,758 1018,756 1060,752 1102,747 1144,741 1204,741 1204,38 76,38"/></clipPath>
  </defs>
  <path d="M 851.332 210.959 C 846.169 212.189, 839.545 216.604, 836.738 220.687 C 833.880 224.845, 833.536 226.011, 825.481 258.861 C 817.901 289.780, 813.323 297.490, 799.147 303.213 L 793.500 305.493 721.500 306.020 C 650.090 306.543, 649.452 306.566, 643.581 308.778 C 631.439 313.354, 620.726 322.729, 615.549 333.310 C 612.328 339.894, 583.993 452.127, 584.016 458.210 C 584.041 464.522, 587.456 469.845, 593.465 472.937 L 598.429 475.491 633.965 475.473 L 669.500 475.455 675.046 472.877 C 685.786 467.882, 690.122 462.264, 693.957 448.373 C 695 444.593, 699.750 426.203, 704.513 407.507 C 715.375 364.862, 718.025 359.094, 729.641 352.806 C 738.786 347.856, 737.813 347.886, 877.500 348.203 L 1008.500 348.500 1013.177 350.662 C 1019.929 353.782, 1023.347 359.326, 1023.799 367.889 C 1024.100 373.612, 1022.794 379.904, 1014.074 414.713 C 1003.173 458.226, 1003.131 458.488, 1005.943 464.684 C 1010.558 474.849, 1017.706 476.328, 1058.346 475.531 C 1090.795 474.895, 1093.093 474.595, 1100.222 470.074 C 1109.369 464.274, 1110.845 460.768, 1121.525 419.500 C 1139.613 349.608, 1145 328.101, 1144.994 325.803 C 1144.978 318.849, 1140.654 311.512, 1134.631 308.214 C 1131.759 306.642, 1123.982 306.459, 1040.500 306 L 949.500 305.500 943.911 302.879 C 937.108 299.689, 934.096 295.332, 933.289 287.511 C 932.808 282.847, 933.780 277.740, 939.528 254.743 C 947.090 224.487, 947.206 222.583, 941.857 216.489 C 936.475 210.360, 933.534 209.986, 891.568 210.102 C 871.181 210.159, 853.074 210.544, 851.332 210.959 M 557 235.984 C 553.975 236.434, 485.887 236.847, 405.693 236.901 C 304.224 236.970, 258.571 237.331, 255.564 238.088 C 246.689 240.323, 241.682 246.693, 238.531 259.758 C 235.948 270.467, 237.582 276.111, 244.311 279.724 C 246.840 281.083, 251.129 281.547, 265.032 281.969 C 289.537 282.711, 295.561 286.091, 297.425 300.143 C 298.258 306.428, 298.633 304.836, 237.830 553 C 230.081 584.625, 218.879 630.750, 212.935 655.500 C 206.992 680.250, 195.838 726.150, 188.148 757.500 C 180.458 788.850, 170.728 828.675, 166.525 846 C 162.323 863.325, 153.689 898.621, 147.338 924.435 C 134.659 975.971, 134.089 980.104, 138.764 986.669 C 143.491 993.308, 144.723 993.500, 182.500 993.500 L 216.500 993.500 221.833 990.546 C 224.766 988.921, 228.278 986.270, 229.638 984.653 C 235.673 977.481, 235.266 978.881, 264.501 865 C 269.796 844.375, 276.534 818.275, 279.475 807 C 282.416 795.725, 288.050 773.900, 291.995 758.500 C 298.983 731.225, 307.709 697.419, 315.870 666 C 319.947 650.306, 356.911 507.012, 381.006 413.500 C 388.233 385.450, 397.043 351.025, 400.583 337 C 409.661 301.033, 414.304 292.636, 429 285.608 L 435.500 282.500 453.074 282.500 C 470.430 282.500, 470.699 282.533, 474.668 285.161 C 480.290 288.882, 482.487 293.824, 482.377 302.500 C 482.132 321.949, 455.567 370.348, 413.564 427.872 C 394.883 453.457, 392 459.630, 392 474.054 C 392 482.930, 394.306 489.153, 402.729 503 C 430.687 548.962, 437.238 590.213, 425.449 646.048 C 409.555 721.327, 377.978 765.348, 326.874 783.467 C 313.539 788.196, 307 796.364, 307 808.295 C 307 823, 314.198 827.716, 333.971 825.967 C 416.683 818.650, 466.290 788.673, 496.212 727.928 C 516.676 686.382, 533.372 622.452, 534.713 580.500 C 535.991 540.529, 527.404 516.136, 502.597 489.275 C 492.738 478.600, 491.033 475.723, 490.288 468.500 C 489.115 457.137, 491.494 453.151, 514.759 427.506 C 556.662 381.317, 584.438 334.413, 598.559 286 C 606.673 258.184, 603.187 241.493, 588.321 236.971 C 583.508 235.507, 564.275 234.901, 557 235.984 M 712.461 485.115 C 701.694 486.429, 696.321 491.735, 693.403 503.932 C 690.541 515.899, 691.961 521.215, 698.965 524.750 L 703.424 527 833.744 527 C 976.499 527, 967.854 527.357, 974.339 521.197 C 981.530 514.366, 984.811 497.333, 980.283 490.336 C 976.525 484.529, 983.527 484.822, 844.646 484.654 C 774.716 484.569, 715.233 484.777, 712.461 485.115 M 566.764 626.996 C 558.563 629.465, 554.184 634.556, 551.584 644.644 C 549.483 652.794, 549.591 657.817, 551.950 661.686 C 555.559 667.604, 554.264 667.457, 607.500 668 C 662.508 668.561, 662.513 668.562, 668.354 676.219 C 674.008 683.632, 673.723 690.732, 666.895 712.500 C 639.151 800.956, 605.822 857.072, 560 892.476 C 528.416 916.878, 482.068 934.532, 436.500 939.514 C 423.286 940.959, 417.202 946.614, 416.262 958.325 C 415.411 968.923, 419.929 977.501, 427.715 980.071 C 431.942 981.466, 453.179 980.737, 476 978.414 C 638.814 961.838, 718.573 891.148, 771.892 716.168 C 782.432 681.578, 784.989 677.159, 797.954 671.119 C 802.604 668.952, 804.873 668.545, 812 668.599 C 825.994 668.704, 833.586 673.740, 836.007 684.522 C 837.390 690.680, 837.986 687.421, 825.498 742 C 819.772 767.025, 813.467 794.700, 811.487 803.500 C 809.506 812.300, 804.988 832.325, 801.445 848 C 784.037 925.039, 782.729 949.322, 795.225 963.518 C 800.304 969.288, 805.865 972.521, 814.014 974.442 C 821.863 976.292, 1032.475 976.806, 1042.006 974.999 C 1052.312 973.044, 1061.284 966.460, 1065.910 957.456 C 1067.694 953.983, 1078.717 914.665, 1090.570 869.500 C 1095.968 848.929, 1095.144 843.768, 1085.655 838.744 C 1082.330 836.983, 1079.803 836.539, 1073 836.522 C 1058.527 836.485, 1051.605 841.604, 1046.911 855.819 C 1036.878 886.196, 1022.993 903.419, 1002.172 911.311 C 996.771 913.359, 994.851 913.462, 962 913.481 L 927.500 913.500 921.187 910.585 C 907.286 904.167, 901.997 890.249, 905.954 870.500 C 907.856 861.011, 921.916 801.034, 923.537 795.500 C 924.342 792.750, 930.386 768.127, 936.968 740.781 C 949.346 689.353, 950.936 684.433, 957.288 677.911 C 966.481 668.472, 970.150 668, 1034.321 668 C 1087.202 668, 1088.462 667.955, 1092.711 665.898 C 1098.546 663.073, 1101.450 658.963, 1103.928 650.020 C 1106.576 640.460, 1106.537 637.100, 1103.730 632.898 C 1098.671 625.325, 1125.331 625.993, 832 626.088 C 687.625 626.134, 568.269 626.543, 566.764 626.996" fill="url(#g)"/>
  <path d="M 851.332 210.959 C 846.169 212.189, 839.545 216.604, 836.738 220.687 C 833.880 224.845, 833.536 226.011, 825.481 258.861 C 817.901 289.780, 813.323 297.490, 799.147 303.213 L 793.500 305.493 721.500 306.020 C 650.090 306.543, 649.452 306.566, 643.581 308.778 C 631.439 313.354, 620.726 322.729, 615.549 333.310 C 612.328 339.894, 583.993 452.127, 584.016 458.210 C 584.041 464.522, 587.456 469.845, 593.465 472.937 L 598.429 475.491 633.965 475.473 L 669.500 475.455 675.046 472.877 C 685.786 467.882, 690.122 462.264, 693.957 448.373 C 695 444.593, 699.750 426.203, 704.513 407.507 C 715.375 364.862, 718.025 359.094, 729.641 352.806 C 738.786 347.856, 737.813 347.886, 877.500 348.203 L 1008.500 348.500 1013.177 350.662 C 1019.929 353.782, 1023.347 359.326, 1023.799 367.889 C 1024.100 373.612, 1022.794 379.904, 1014.074 414.713 C 1003.173 458.226, 1003.131 458.488, 1005.943 464.684 C 1010.558 474.849, 1017.706 476.328, 1058.346 475.531 C 1090.795 474.895, 1093.093 474.595, 1100.222 470.074 C 1109.369 464.274, 1110.845 460.768, 1121.525 419.500 C 1139.613 349.608, 1145 328.101, 1144.994 325.803 C 1144.978 318.849, 1140.654 311.512, 1134.631 308.214 C 1131.759 306.642, 1123.982 306.459, 1040.500 306 L 949.500 305.500 943.911 302.879 C 937.108 299.689, 934.096 295.332, 933.289 287.511 C 932.808 282.847, 933.780 277.740, 939.528 254.743 C 947.090 224.487, 947.206 222.583, 941.857 216.489 C 936.475 210.360, 933.534 209.986, 891.568 210.102 C 871.181 210.159, 853.074 210.544, 851.332 210.959 M 557 235.984 C 553.975 236.434, 485.887 236.847, 405.693 236.901 C 304.224 236.970, 258.571 237.331, 255.564 238.088 C 246.689 240.323, 241.682 246.693, 238.531 259.758 C 235.948 270.467, 237.582 276.111, 244.311 279.724 C 246.840 281.083, 251.129 281.547, 265.032 281.969 C 289.537 282.711, 295.561 286.091, 297.425 300.143 C 298.258 306.428, 298.633 304.836, 237.830 553 C 230.081 584.625, 218.879 630.750, 212.935 655.500 C 206.992 680.250, 195.838 726.150, 188.148 757.500 C 180.458 788.850, 170.728 828.675, 166.525 846 C 162.323 863.325, 153.689 898.621, 147.338 924.435 C 134.659 975.971, 134.089 980.104, 138.764 986.669 C 143.491 993.308, 144.723 993.500, 182.500 993.500 L 216.500 993.500 221.833 990.546 C 224.766 988.921, 228.278 986.270, 229.638 984.653 C 235.673 977.481, 235.266 978.881, 264.501 865 C 269.796 844.375, 276.534 818.275, 279.475 807 C 282.416 795.725, 288.050 773.900, 291.995 758.500 C 298.983 731.225, 307.709 697.419, 315.870 666 C 319.947 650.306, 356.911 507.012, 381.006 413.500 C 388.233 385.450, 397.043 351.025, 400.583 337 C 409.661 301.033, 414.304 292.636, 429 285.608 L 435.500 282.500 453.074 282.500 C 470.430 282.500, 470.699 282.533, 474.668 285.161 C 480.290 288.882, 482.487 293.824, 482.377 302.500 C 482.132 321.949, 455.567 370.348, 413.564 427.872 C 394.883 453.457, 392 459.630, 392 474.054 C 392 482.930, 394.306 489.153, 402.729 503 C 430.687 548.962, 437.238 590.213, 425.449 646.048 C 409.555 721.327, 377.978 765.348, 326.874 783.467 C 313.539 788.196, 307 796.364, 307 808.295 C 307 823, 314.198 827.716, 333.971 825.967 C 416.683 818.650, 466.290 788.673, 496.212 727.928 C 516.676 686.382, 533.372 622.452, 534.713 580.500 C 535.991 540.529, 527.404 516.136, 502.597 489.275 C 492.738 478.600, 491.033 475.723, 490.288 468.500 C 489.115 457.137, 491.494 453.151, 514.759 427.506 C 556.662 381.317, 584.438 334.413, 598.559 286 C 606.673 258.184, 603.187 241.493, 588.321 236.971 C 583.508 235.507, 564.275 234.901, 557 235.984 M 712.461 485.115 C 701.694 486.429, 696.321 491.735, 693.403 503.932 C 690.541 515.899, 691.961 521.215, 698.965 524.750 L 703.424 527 833.744 527 C 976.499 527, 967.854 527.357, 974.339 521.197 C 981.530 514.366, 984.811 497.333, 980.283 490.336 C 976.525 484.529, 983.527 484.822, 844.646 484.654 C 774.716 484.569, 715.233 484.777, 712.461 485.115 M 566.764 626.996 C 558.563 629.465, 554.184 634.556, 551.584 644.644 C 549.483 652.794, 549.591 657.817, 551.950 661.686 C 555.559 667.604, 554.264 667.457, 607.500 668 C 662.508 668.561, 662.513 668.562, 668.354 676.219 C 674.008 683.632, 673.723 690.732, 666.895 712.500 C 639.151 800.956, 605.822 857.072, 560 892.476 C 528.416 916.878, 482.068 934.532, 436.500 939.514 C 423.286 940.959, 417.202 946.614, 416.262 958.325 C 415.411 968.923, 419.929 977.501, 427.715 980.071 C 431.942 981.466, 453.179 980.737, 476 978.414 C 638.814 961.838, 718.573 891.148, 771.892 716.168 C 782.432 681.578, 784.989 677.159, 797.954 671.119 C 802.604 668.952, 804.873 668.545, 812 668.599 C 825.994 668.704, 833.586 673.740, 836.007 684.522 C 837.390 690.680, 837.986 687.421, 825.498 742 C 819.772 767.025, 813.467 794.700, 811.487 803.500 C 809.506 812.300, 804.988 832.325, 801.445 848 C 784.037 925.039, 782.729 949.322, 795.225 963.518 C 800.304 969.288, 805.865 972.521, 814.014 974.442 C 821.863 976.292, 1032.475 976.806, 1042.006 974.999 C 1052.312 973.044, 1061.284 966.460, 1065.910 957.456 C 1067.694 953.983, 1078.717 914.665, 1090.570 869.500 C 1095.968 848.929, 1095.144 843.768, 1085.655 838.744 C 1082.330 836.983, 1079.803 836.539, 1073 836.522 C 1058.527 836.485, 1051.605 841.604, 1046.911 855.819 C 1036.878 886.196, 1022.993 903.419, 1002.172 911.311 C 996.771 913.359, 994.851 913.462, 962 913.481 L 927.500 913.500 921.187 910.585 C 907.286 904.167, 901.997 890.249, 905.954 870.500 C 907.856 861.011, 921.916 801.034, 923.537 795.500 C 924.342 792.750, 930.386 768.127, 936.968 740.781 C 949.346 689.353, 950.936 684.433, 957.288 677.911 C 966.481 668.472, 970.150 668, 1034.321 668 C 1087.202 668, 1088.462 667.955, 1092.711 665.898 C 1098.546 663.073, 1101.450 658.963, 1103.928 650.020 C 1106.576 640.460, 1106.537 637.100, 1103.730 632.898 C 1098.671 625.325, 1125.331 625.993, 832 626.088 C 687.625 626.134, 568.269 626.543, 566.764 626.996" fill="#303030" clip-path="url(#dark)"/>
</svg>
